<svg width="98" height="81" viewBox="0 0 98 81" fill="none" xmlns="http://www.w3.org/2000/svg">
<path id="Vector 4 (Stroke)" fill-rule="evenodd" clip-rule="evenodd" d="M108.121 0.878031C109.293 2.04925 109.293 3.94874 108.122 5.12067L82.8467 30.4114C78.4987 34.7621 71.4463 34.7621 67.0982 30.4114C65.0936 28.4055 61.8422 28.4055 59.8376 30.4114L42.4064 47.8532C39.0208 51.2408 33.5296 51.2408 30.1441 47.8532C29.102 46.8105 27.4118 46.8105 26.3697 47.8532L-5.87803 80.1207C-7.04925 81.2926 -8.94874 81.2932 -10.1207 80.122C-11.2926 78.9508 -11.2932 77.0513 -10.122 75.8793L22.1257 43.6119C25.5113 40.2243 31.0025 40.2243 34.388 43.6119C35.4301 44.6546 37.1203 44.6546 38.1624 43.6119L55.5936 26.17C59.9417 21.8193 66.9941 21.8193 71.3421 26.17C73.3468 28.1759 76.5982 28.1759 78.6028 26.17L103.878 0.879329C105.049 -0.292603 106.949 -0.293184 108.121 0.878031Z" fill="url(#paint0_linear_26_462)"/>
<defs>
<linearGradient id="paint0_linear_26_462" x1="106.349" y1="-0.488368" x2="-1.77144" y2="79.3321" gradientUnits="userSpaceOnUse">
<stop stop-color="#FF9049"/>
<stop offset="1" stop-color="#FF5E5E"/>
</linearGradient>
</defs>
</svg>
