<svg width="97" height="162" viewBox="0 0 97 162" fill="none" xmlns="http://www.w3.org/2000/svg">
<g id="Group 37">
<g id="Group 40">
<path id="Rectangle 20" d="M0.756836 2.16216C0.756836 0.968033 1.72487 0 2.919 0H51.5677C52.7618 0 53.7298 0.968033 53.7298 2.16216V68.1081C53.7298 69.3022 52.7618 70.2703 51.5677 70.2703H2.919C1.72487 70.2703 0.756836 69.3022 0.756836 68.1081V2.16216Z" fill="white"/>
<g id="Mask group">
<mask id="mask0_26_724" style="mask-type:alpha" maskUnits="userSpaceOnUse" x="0" y="0" width="54" height="71">
<path id="Rectangle 22" d="M0.756836 2.16216C0.756836 0.968033 1.72487 0 2.919 0H51.5677C52.7618 0 53.7298 0.968033 53.7298 2.16216V68.1081C53.7298 69.3022 52.7618 70.2703 51.5677 70.2703H2.919C1.72487 70.2703 0.756836 69.3022 0.756836 68.1081V2.16216Z" fill="white"/>
</mask>
<g mask="url(#mask0_26_724)">
<path id="Vector 4 (Stroke)" fill-rule="evenodd" clip-rule="evenodd" d="M59.2008 15.6097C59.8343 16.2428 59.8346 17.2696 59.2015 17.903L45.5393 31.5737C43.1889 33.9254 39.3768 33.9254 37.0265 31.5737C35.943 30.4894 34.1854 30.4894 33.1019 31.5737L23.6796 41.0017C21.8496 42.8329 18.8813 42.8329 17.0513 41.0017C16.488 40.4381 15.5744 40.4381 15.0111 41.0017L-2.42009 58.4436C-3.05318 59.0771 -4.07993 59.0774 -4.71341 58.4443C-5.34688 57.8112 -5.3472 56.7844 -4.71411 56.151L12.7171 38.7091C14.5471 36.878 17.5153 36.878 19.3453 38.7091C19.9086 39.2727 20.8223 39.2727 21.3856 38.7091L30.8078 29.2811C33.1581 26.9293 36.9703 26.9293 39.3206 29.2811C40.4041 30.3653 42.1617 30.3653 43.2452 29.2811L56.9075 15.6104C57.5406 14.9769 58.5674 14.9766 59.2008 15.6097Z" fill="url(#paint0_linear_26_724)"/>
</g>
</g>
</g>
<g id="Group 39">
<path id="Rectangle 21" d="M27.2439 81.0811C27.2439 79.887 28.2119 78.9189 29.4061 78.9189H94.2709C95.4651 78.9189 96.4331 79.887 96.4331 81.0811V158.919C96.4331 160.113 95.4651 161.081 94.2709 161.081H29.4061C28.2119 161.081 27.2439 160.113 27.2439 158.919V81.0811Z" fill="white"/>
<g id="Group 38">
<path id="Ellipse 19 (Stroke)" fill-rule="evenodd" clip-rule="evenodd" d="M62.1088 137.297C71.8111 137.297 79.6763 129.432 79.6763 119.73C79.6763 110.027 71.8111 102.162 62.1088 102.162C52.4065 102.162 44.5412 110.027 44.5412 119.73C44.5412 129.432 52.4065 137.297 62.1088 137.297ZM62.1088 144.865C75.9905 144.865 87.2439 133.612 87.2439 119.73C87.2439 105.848 75.9905 94.5946 62.1088 94.5946C48.227 94.5946 36.9736 105.848 36.9736 119.73C36.9736 133.612 48.227 144.865 62.1088 144.865Z" fill="url(#paint1_linear_26_724)"/>
<g id="Welcome!">
<path d="M52.9788 117.145C52.9788 118.373 53.2969 119.344 53.9332 120.059C54.5694 120.769 55.4365 121.123 56.5345 121.123C57.5536 121.123 58.3504 120.76 58.9247 120.034C59.5047 119.307 59.7946 118.401 59.7946 117.314H59.1612C59.1612 117.934 58.9895 118.426 58.646 118.792C58.3025 119.158 57.8746 119.341 57.3622 119.341C56.816 119.341 56.4106 119.158 56.146 118.792C55.8814 118.421 55.749 117.877 55.749 117.162C55.749 116.346 55.8814 115.76 56.146 115.405C56.4163 115.045 56.816 114.865 57.3453 114.865C57.914 114.865 58.356 115.099 58.6713 115.566C58.9866 116.033 59.1443 116.869 59.1443 118.074L59.2203 118.412C59.2203 120.197 58.829 121.464 58.0463 122.213C57.2637 122.962 56.1573 123.333 54.7271 123.328H54.347V125.473H54.7862C57.0835 125.45 58.8374 124.828 60.048 123.606C61.2642 122.379 61.8723 120.726 61.8723 118.649V118.209C61.8723 116.34 61.4529 114.989 60.6139 114.155C59.7749 113.316 58.691 112.897 57.3622 112.897C56.0277 112.897 54.9636 113.283 54.1696 114.054C53.3757 114.825 52.9788 115.856 52.9788 117.145Z" fill="#242742"/>
<path d="M67.7423 125.405H70.3521V113.108H67.9112L62.4467 120.98V122.838H71.7119V120.735H69.043L68.6038 120.777H65.0902L67.7 116.689H67.7845V121.875L67.7423 122.171V125.405Z" fill="#242742"/>
</g>
</g>
</g>
</g>
<defs>
<linearGradient id="paint0_linear_26_724" x1="58.243" y1="14.8711" x2="-0.200314" y2="58.0173" gradientUnits="userSpaceOnUse">
<stop stop-color="#FF9049"/>
<stop offset="1" stop-color="#FF5E5E"/>
</linearGradient>
<linearGradient id="paint1_linear_26_724" x1="62.1088" y1="94.5946" x2="62.1088" y2="144.865" gradientUnits="userSpaceOnUse">
<stop stop-color="#FF6A3D"/>
<stop offset="1" stop-color="#FF5B66"/>
</linearGradient>
</defs>
</svg>
